<?xml version="1.0" encoding="UTF-8" standalone="no"?>
<!-- Generator: Adobe Illustrator 18.1.0, SVG Export Plug-In . SVG Version: 6.00 Build 0)  -->

<svg
   xmlns:dc="http://purl.org/dc/elements/1.1/"
   xmlns:cc="http://creativecommons.org/ns#"
   xmlns:rdf="http://www.w3.org/1999/02/22-rdf-syntax-ns#"
   xmlns:svg="http://www.w3.org/2000/svg"
   xmlns="http://www.w3.org/2000/svg"
   xmlns:sodipodi="http://sodipodi.sourceforge.net/DTD/sodipodi-0.dtd"
   xmlns:inkscape="http://www.inkscape.org/namespaces/inkscape"
   version="1.1"
   id="svg4672"
   sodipodi:docname="logo.svg"
   inkscape:version="0.48.4 r9939"
   inkscape:output_extension="org.inkscape.output.svg.inkscape"
   sodipodi:version="0.32"
   x="0px"
   y="0px"
   viewBox="229 -258 599.9 600"
   enable-background="new 229 -258 599.9 600"
   xml:space="preserve"
   width="100%"
   height="100%"
   inkscape:export-filename="/home/hmayer/Projects/C/avm-motion-trigger/docs/assets/logo.png"
   inkscape:export-xdpi="76.812798"
   inkscape:export-ydpi="76.812798"><metadata
     id="metadata11"><rdf:RDF><cc:Work
         rdf:about=""><dc:format>image/svg+xml</dc:format><dc:type
           rdf:resource="http://purl.org/dc/dcmitype/StillImage" /><dc:title></dc:title></cc:Work></rdf:RDF></metadata><defs
     id="defs9" /><sodipodi:namedview
     inkscape:pageopacity="0.0"
     inkscape:document-units="px"
     inkscape:window-y="32"
     inkscape:current-layer="layer1"
     inkscape:window-height="1025"
     inkscape:window-x="-2"
     inkscape:window-width="1920"
     inkscape:pageshadow="2"
     id="base"
     guidetolerance="10"
     objecttolerance="10"
     inkscape:zoom="1"
     inkscape:cx="70.57143"
     inkscape:cy="323.42857"
     bordercolor="#666666"
     pagecolor="#ffffff"
     gridtolerance="10000"
     borderopacity="1.0"
     showgrid="false"
     inkscape:window-maximized="1" /><g
     id="layer1"
     transform="translate(-310.97085,3.6021267)"
     inkscape:groupmode="layer"
     inkscape:label="Layer 1"><g
       id="g5653"
       transform="matrix(4.6848915,0,0,4.6848915,-1147.8937,-2167.6612)"
       style="fill:#000000"><path
         id="path3495"
         d="m 389.2,463.7 9.1,0 10.4,-13 c 2.1,-2.4 5.3,-4 8.8,-4 l 22.2,0 c 3.5,0 6.6,1.9 8.2,5 l 6.6,12.5 c 0.3,0.5 0.5,1.1 0.5,1.9 0,2.2 -1.9,4.2 -4.2,4.2 -1.8,0 -3,-0.8 -3.8,-2.2 l -5.9,-11.4 -9.6,0 7.4,18.4 2.2,23.5 19,0 c 3,0 5.4,1.9 6.6,4.5 l -3.2363,5.4 -27.4637,0 c -2.4,0 -4.5,-1.8 -4.6,-4.2 l -2.2,-20.6 -17.6,36.5 c -1,2.1 -0.77305,3.89844 -3.23857,3.0731 L 399.43452,520.28477 418.9,479 l -6.7,-16.8 -6.4,7.8 c -1.6,2.1 -4.3,3.5 -7.2,3.5 l -9.4,0"
         inkscape:connector-curvature="0"
         style="fill:#000000"
         sodipodi:nodetypes="cccssccsscccccsccscccsccccsc" /><path
         id="path3497"
         d="m 412,428 0.5,0 0.5,0 0.5,0.1 0.4,0.1 0.4,0.1 0.4,0.1 0.4,0.2 0.4,0.2 0.4,0.2 0.4,0.2 0.4,0.2 0.4,0.2 0.3,0.3 0.3,0.3 0.3,0.3 0.3,0.3 0.3,0.3 0.3,0.3 0.3,0.3 0.3,0.4 0.2,0.4 0.2,0.4 0.2,0.4 0.2,0.4 0.2,0.4 0.1,0.4 0.1,0.4 0.1,0.4 0.1,0.4 0.1,0.5 0,0.5 0,0.5 c 0,5 -4.2,9 -9.1,9 -5,0 -9,-4 -9,-9 0,-5 4.2,-9.2 9.1,-9.2 z"
         style="fill:#000000"
         inkscape:connector-curvature="0" /></g><path
       style="fill:#000000;stroke:#000000;stroke-width:1px;stroke-linecap:butt;stroke-linejoin:miter;stroke-opacity:1"
       d="M 140,101 72.25,180.25 40.5,315.5 82.25,437.75 140,502 z"
       id="path3758"
       inkscape:connector-curvature="0"
       transform="translate(539.97084,-261.60213)"
       sodipodi:nodetypes="cccccc" /><rect
       style="fill:#ff0000;fill-opacity:0;fill-rule:nonzero;stroke:#ff9800;stroke-width:12.59;stroke-linecap:square;stroke-linejoin:miter;stroke-miterlimit:4;stroke-opacity:1;stroke-dasharray:none;stroke-dashoffset:0"
       id="rect3924"
       width="163.33107"
       height="223.33107"
       x="728.8053"
       y="-172.76767"
       ry="0"
       rx="0" /><path
       sodipodi:type="arc"
       style="fill:#000000;fill-opacity:0;fill-rule:nonzero;stroke:#000000;stroke-width:30.70000076;stroke-linecap:round;stroke-linejoin:round;stroke-miterlimit:4;stroke-opacity:1;stroke-dasharray:none;stroke-dashoffset:0"
       id="path2988"
       sodipodi:cx="285"
       sodipodi:cy="293"
       sodipodi:rx="285"
       sodipodi:ry="285"
       d="m 570,293 a 285,285 0 1 1 -570,0 285,285 0 1 1 570,0 z"
       transform="matrix(0.89345763,0,0,0.89345763,585.28541,-223.38521)" /></g></svg>